<svg xmlns="http://www.w3.org/2000/svg" width="483.3" height="367.8" viewBox="0 0 483.3 367.8">
  <g id="_002-envelope" data-name="002-envelope" transform="translate(0 -57.75)">
    <g id="Group_8" data-name="Group 8">
      <path id="Path_12" data-name="Path 12" d="M424.3,57.75H59.1A59.151,59.151,0,0,0,0,116.85v249.6a59.151,59.151,0,0,0,59.1,59.1H424.2a59.151,59.151,0,0,0,59.1-59.1V116.95A59.087,59.087,0,0,0,424.3,57.75Zm32.1,308.7a32.136,32.136,0,0,1-32.1,32.1H59.1A32.136,32.136,0,0,1,27,366.45V116.95a32.136,32.136,0,0,1,32.1-32.1H424.2a32.136,32.136,0,0,1,32.1,32.1v249.5Z" fill="#d6620c"/>
      <path id="Path_13" data-name="Path 13" d="M304.8,238.55l118.2-106a13.524,13.524,0,1,0-18.1-20.1l-163,146.3-31.8-28.4c-.1-.1-.2-.2-.2-.3a20,20,0,0,0-2.2-1.9L78.3,112.35a13.528,13.528,0,0,0-18,20.2l119.6,106.9L60.8,350.95a13.555,13.555,0,0,0-.6,19.1,13.812,13.812,0,0,0,9.9,4.3,13.529,13.529,0,0,0,9.2-3.6l120.9-113.1,32.8,29.3a13.465,13.465,0,0,0,18-.1l33.7-30.2,120.2,114.2a13.535,13.535,0,0,0,19.1-.5,13.554,13.554,0,0,0-.5-19.1Z" fill="#d6620c"/>
    </g>
  </g>
</svg>
