<svg xmlns="http://www.w3.org/2000/svg" width="25.6" height="18" viewBox="0 0 25.6 18">
  <g id="menu" transform="translate(0 -76)">
    <g id="Group_2" data-name="Group 2" transform="translate(0 84)">
      <g id="Group_1" data-name="Group 1" transform="translate(0 0)">
        <path id="Path_8" data-name="Path 8" d="M24.6,236H1a1,1,0,0,0,0,2H24.6a1,1,0,0,0,0-2Z" transform="translate(0 -236)" fill="#fff"/>
      </g>
    </g>
    <g id="Group_4" data-name="Group 4" transform="translate(0 76)">
      <g id="Group_3" data-name="Group 3" transform="translate(0 0)">
        <path id="Path_9" data-name="Path 9" d="M24.6,76H1a1,1,0,0,0,0,2H24.6a1,1,0,0,0,0-2Z" transform="translate(0 -76)" fill="#fff"/>
      </g>
    </g>
    <g id="Group_6" data-name="Group 6" transform="translate(0 92)">
      <g id="Group_5" data-name="Group 5" transform="translate(0 0)">
        <path id="Path_10" data-name="Path 10" d="M24.6,396H1a1,1,0,0,0,0,2H24.6a1,1,0,0,0,0-2Z" transform="translate(0 -396)" fill="#fff"/>
      </g>
    </g>
  </g>
</svg>
